<mxfile host="app.diagrams.net" agent="Mozilla/5.0 (Macintosh; Intel Mac OS X 10_15_7) AppleWebKit/537.36 (KHTML, like Gecko) Chrome/130.0.0.0 Safari/537.36" version="24.8.6">
  <diagram name="Page-1" id="FI2Y_2_EOv9rips4BZRn">
    <mxGraphModel dx="504" dy="547" grid="1" gridSize="10" guides="1" tooltips="1" connect="1" arrows="1" fold="1" page="1" pageScale="1" pageWidth="850" pageHeight="1100" math="0" shadow="0">
      <root>
        <mxCell id="0" />
        <mxCell id="1" parent="0" />
        <mxCell id="LcSldpAkXtB4kn1oc7S1-2" value="Player&lt;div&gt;&lt;br&gt;&lt;/div&gt;&lt;div&gt;&lt;br&gt;&lt;/div&gt;&lt;div&gt;&lt;br&gt;&lt;/div&gt;&lt;div&gt;&lt;br&gt;&lt;/div&gt;" style="shape=umlLifeline;perimeter=lifelinePerimeter;whiteSpace=wrap;html=1;container=1;dropTarget=0;collapsible=0;recursiveResize=0;outlineConnect=0;portConstraint=eastwest;newEdgeStyle={&quot;curved&quot;:0,&quot;rounded&quot;:0};participant=umlActor;" parent="1" vertex="1">
          <mxGeometry x="170" y="120" width="20" height="480" as="geometry" />
        </mxCell>
        <mxCell id="LcSldpAkXtB4kn1oc7S1-3" value=":Game" style="shape=umlLifeline;perimeter=lifelinePerimeter;whiteSpace=wrap;html=1;container=1;dropTarget=0;collapsible=0;recursiveResize=0;outlineConnect=0;portConstraint=eastwest;newEdgeStyle={&quot;curved&quot;:0,&quot;rounded&quot;:0};" parent="1" vertex="1">
          <mxGeometry x="330" y="120" width="100" height="480" as="geometry" />
        </mxCell>
        <mxCell id="LcSldpAkXtB4kn1oc7S1-9" value="&lt;br&gt;&lt;div&gt;enterHall&lt;/div&gt;" style="html=1;verticalAlign=bottom;endArrow=block;curved=0;rounded=0;" parent="1" edge="1">
          <mxGeometry width="80" relative="1" as="geometry">
            <mxPoint x="182.42" y="220" as="sourcePoint" />
            <mxPoint x="377.42" y="220" as="targetPoint" />
          </mxGeometry>
        </mxCell>
        <mxCell id="LcSldpAkXtB4kn1oc7S1-10" value="loop&lt;div&gt;[isFound()]&amp;nbsp;&lt;/div&gt;" style="shape=umlFrame;whiteSpace=wrap;html=1;pointerEvents=0;width=70;height=40;" parent="1" vertex="1">
          <mxGeometry x="100" y="280" width="350" height="130" as="geometry" />
        </mxCell>
        <mxCell id="LcSldpAkXtB4kn1oc7S1-11" value="setMode(GameMode.ROGUE)" style="html=1;verticalAlign=bottom;endArrow=open;dashed=1;endSize=8;curved=0;rounded=0;" parent="1" edge="1">
          <mxGeometry x="0.0002" relative="1" as="geometry">
            <mxPoint x="374.84000000000003" y="250" as="sourcePoint" />
            <mxPoint x="179.995172413793" y="250" as="targetPoint" />
            <Array as="points">
              <mxPoint x="289.84000000000003" y="250" />
            </Array>
            <mxPoint as="offset" />
          </mxGeometry>
        </mxCell>
        <mxCell id="LcSldpAkXtB4kn1oc7S1-14" value="&lt;span style=&quot;text-align: left;&quot;&gt;updatePlayerPosition()&lt;/span&gt;" style="html=1;verticalAlign=bottom;endArrow=block;curved=0;rounded=0;" parent="1" source="LcSldpAkXtB4kn1oc7S1-2" edge="1">
          <mxGeometry width="80" relative="1" as="geometry">
            <mxPoint x="185" y="320" as="sourcePoint" />
            <mxPoint x="375" y="319.9999999999999" as="targetPoint" />
            <mxPoint as="offset" />
          </mxGeometry>
        </mxCell>
        <mxCell id="LcSldpAkXtB4kn1oc7S1-27" value="interact(item)" style="html=1;verticalAlign=bottom;endArrow=block;curved=0;rounded=0;" parent="1" edge="1">
          <mxGeometry x="0.0515" width="80" relative="1" as="geometry">
            <mxPoint x="180.11" y="380" as="sourcePoint" />
            <mxPoint x="370.11" y="379.9999999999999" as="targetPoint" />
            <mxPoint as="offset" />
          </mxGeometry>
        </mxCell>
        <mxCell id="LcSldpAkXtB4kn1oc7S1-33" value="render()" style="html=1;verticalAlign=bottom;endArrow=open;dashed=1;endSize=8;curved=0;rounded=0;" parent="1" edge="1">
          <mxGeometry x="0.0002" relative="1" as="geometry">
            <mxPoint x="372.5" y="350" as="sourcePoint" />
            <mxPoint x="177.5" y="350" as="targetPoint" />
            <mxPoint as="offset" />
          </mxGeometry>
        </mxCell>
        <mxCell id="LcSldpAkXtB4kn1oc7S1-34" value="displayRune()&lt;span style=&quot;color: rgba(0, 0, 0, 0); font-family: monospace; font-size: 0px; text-align: start; background-color: rgb(251, 251, 251);&quot;&gt;%3CmxGraphModel%3E%3Croot%3E%3CmxCell%20id%3D%220%22%2F%3E%3CmxCell%20id%3D%221%22%20parent%3D%220%22%2F%3E%3CmxCell%20id%3D%222%22%20value%3D%22render()%22%20style%3D%22html%3D1%3BverticalAlign%3Dbottom%3BendArrow%3Dopen%3Bdashed%3D1%3BendSize%3D8%3Bcurved%3D0%3Brounded%3D0%3B%22%20edge%3D%221%22%20parent%3D%221%22%3E%3CmxGeometry%20x%3D%220.0002%22%20relative%3D%221%22%20as%3D%22geometry%22%3E%3CmxPoint%20x%3D%22372.5%22%20y%3D%22350%22%20as%3D%22sourcePoint%22%2F%3E%3CmxPoint%20x%3D%22177.5%22%20y%3D%22350%22%20as%3D%22targetPoint%22%2F%3E%3CmxPoint%20as%3D%22offset%22%2F%3E%3C%2FmxGeometry%3E%3C%2FmxCell%3E%3C%2Froot%3E%3C%2FmxGraphModel%3E&lt;/span&gt;" style="html=1;verticalAlign=bottom;endArrow=open;dashed=1;endSize=8;curved=0;rounded=0;" parent="1" edge="1">
          <mxGeometry x="0.0006" relative="1" as="geometry">
            <mxPoint x="380.11" y="440" as="sourcePoint" />
            <mxPoint x="185.11" y="440" as="targetPoint" />
            <mxPoint as="offset" />
          </mxGeometry>
        </mxCell>
        <mxCell id="LcSldpAkXtB4kn1oc7S1-35" value="playSound()" style="html=1;verticalAlign=bottom;endArrow=open;dashed=1;endSize=8;curved=0;rounded=0;" parent="1" edge="1">
          <mxGeometry x="0.0002" relative="1" as="geometry">
            <mxPoint x="380.11" y="470" as="sourcePoint" />
            <mxPoint x="185.11" y="470" as="targetPoint" />
            <mxPoint as="offset" />
          </mxGeometry>
        </mxCell>
        <mxCell id="LcSldpAkXtB4kn1oc7S1-36" value="unlockDoor()" style="html=1;verticalAlign=bottom;endArrow=open;dashed=1;endSize=8;curved=0;rounded=0;" parent="1" edge="1">
          <mxGeometry x="0.0006" relative="1" as="geometry">
            <mxPoint x="380.11" y="500" as="sourcePoint" />
            <mxPoint x="185.11" y="500" as="targetPoint" />
            <mxPoint as="offset" />
          </mxGeometry>
        </mxCell>
        <mxCell id="LcSldpAkXtB4kn1oc7S1-37" value="collectRune()" style="html=1;verticalAlign=bottom;endArrow=block;curved=0;rounded=0;" parent="1" edge="1">
          <mxGeometry x="0.0515" width="80" relative="1" as="geometry">
            <mxPoint x="180" y="530" as="sourcePoint" />
            <mxPoint x="370" y="529.9999999999999" as="targetPoint" />
            <mxPoint as="offset" />
          </mxGeometry>
        </mxCell>
        <mxCell id="LcSldpAkXtB4kn1oc7S1-38" value="exitHall()" style="html=1;verticalAlign=bottom;endArrow=block;curved=0;rounded=0;" parent="1" edge="1">
          <mxGeometry x="0.0515" width="80" relative="1" as="geometry">
            <mxPoint x="180" y="560" as="sourcePoint" />
            <mxPoint x="370" y="559.9999999999999" as="targetPoint" />
            <mxPoint as="offset" />
          </mxGeometry>
        </mxCell>
        <mxCell id="LcSldpAkXtB4kn1oc7S1-39" value="loadNextHall()" style="html=1;verticalAlign=bottom;endArrow=open;dashed=1;endSize=8;curved=0;rounded=0;" parent="1" edge="1">
          <mxGeometry x="0.0002" relative="1" as="geometry">
            <mxPoint x="372.5" y="590" as="sourcePoint" />
            <mxPoint x="177.5" y="590" as="targetPoint" />
            <mxPoint as="offset" />
          </mxGeometry>
        </mxCell>
      </root>
    </mxGraphModel>
  </diagram>
</mxfile>
